<svg width="115" height="41" viewBox="0 0 115 41" fill="none" xmlns="http://www.w3.org/2000/svg">
<path d="M25.5326 0C25.7218 8.86872 25.765 17.6708 25.7933 26.4729C25.8078 31.0098 25.7958 35.5469 25.7958 40.3732C21.9309 40.3732 18.1982 40.4052 14.4686 40.3126C14.1691 40.3051 13.6406 39.4404 13.6384 38.9719C13.5922 29.3271 13.5889 19.6819 13.6233 10.0369C13.6313 7.77221 14.6214 6.0745 16.6505 4.96452C19.5951 3.35368 22.4737 1.61659 25.5326 0Z" fill="#FAB256"/>
<path d="M9.36663 5.98241C11.1381 7.34152 11.8337 9.13616 11.799 11.4204C11.7142 16.9923 11.7713 22.5665 11.7713 28.2855C7.77839 28.2855 3.95292 28.2855 0 28.2855C0 19.1428 0 10.0392 0 0.614901C2.12137 1.8404 4.10306 2.98522 6.30331 4.28371C7.47012 4.9524 8.41837 5.46741 9.36663 5.98241Z" fill="#DE3459"/>
<path d="M36.4345 21.7698C38.8771 22.9486 39.8624 24.7583 39.7978 27.362C39.6912 31.6544 39.7688 35.9515 39.7688 40.3785C35.6971 40.3785 31.8112 40.3785 27.8005 40.3785C27.8005 32.6117 27.8005 24.9264 27.8005 16.8073C30.7588 18.5095 33.5301 20.104 36.4345 21.7698Z" fill="#2EAC94"/>
<path d="M50.0933 8.43244C49.6604 8.43244 49.2719 8.52233 48.9278 8.7021C48.5948 8.87063 48.3117 9.12344 48.0786 9.46051C47.8455 9.79759 47.6679 10.2021 47.5458 10.674C47.4237 11.1459 47.3627 11.6796 47.3627 12.2751C47.3627 13.084 47.4626 13.7694 47.6624 14.3312C47.8622 14.893 48.1674 15.32 48.5781 15.6121C48.9999 15.9042 49.5328 16.0503 50.1766 16.0503C50.6761 16.0503 51.17 15.9885 51.6584 15.8649C52.1468 15.7301 52.663 15.5615 53.2069 15.3593V17.7862C52.6852 18.0109 52.1579 18.1738 51.6251 18.275C51.0923 18.3761 50.5151 18.4267 49.8935 18.4267C48.6392 18.4267 47.6069 18.1738 46.7966 17.6682C45.9974 17.1514 45.4035 16.4323 45.015 15.511C44.6376 14.5784 44.4489 13.4942 44.4489 12.2582C44.4489 11.3481 44.571 10.5167 44.8152 9.76388C45.0594 8.99985 45.4202 8.34255 45.8975 7.792C46.3859 7.24145 46.9797 6.81449 47.679 6.51112C48.3783 6.20776 49.1887 6.05608 50.11 6.05608C50.6872 6.05608 51.281 6.12911 51.8915 6.27517C52.5131 6.42124 53.107 6.6291 53.6731 6.89876L52.7906 9.19085C52.3466 8.97737 51.9026 8.7976 51.4586 8.65154C51.0146 8.50547 50.5595 8.43244 50.0933 8.43244Z" fill="black"/>
<path d="M65.9117 12.2245C65.9117 13.1571 65.8007 14.0054 65.5787 14.7694C65.3567 15.5222 65.0126 16.1739 64.5464 16.7244C64.0802 17.275 63.4863 17.6963 62.7648 17.9885C62.0433 18.2806 61.1886 18.4267 60.2007 18.4267C59.2239 18.4267 58.3748 18.2806 57.6532 17.9885C56.9317 17.6851 56.3379 17.2637 55.8717 16.7244C55.4055 16.1739 55.0558 15.5166 54.8227 14.7526C54.6007 13.9885 54.4897 13.1402 54.4897 12.2077C54.4897 10.9605 54.6895 9.87623 55.0891 8.9549C55.4998 8.03357 56.127 7.3201 56.9706 6.81449C57.8253 6.29764 58.9076 6.03922 60.2174 6.03922C61.5383 6.03922 62.615 6.29764 63.4475 6.81449C64.2911 7.3201 64.9127 8.03919 65.3123 8.97176C65.7119 9.89309 65.9117 10.9773 65.9117 12.2245ZM57.4701 12.2245C57.4701 13.011 57.5644 13.6908 57.7531 14.2638C57.9418 14.8256 58.236 15.2582 58.6356 15.5615C59.0463 15.8649 59.568 16.0166 60.2007 16.0166C60.8556 16.0166 61.3829 15.8649 61.7825 15.5615C62.1821 15.2582 62.4707 14.8256 62.6483 14.2638C62.837 13.6908 62.9313 13.011 62.9313 12.2245C62.9313 11.0335 62.7204 10.101 62.2986 9.4268C61.8879 8.75266 61.1942 8.41559 60.2174 8.41559C59.5736 8.41559 59.0463 8.57289 58.6356 8.88749C58.236 9.19085 57.9418 9.62905 57.7531 10.2021C57.5644 10.7639 57.4701 11.438 57.4701 12.2245Z" fill="black"/>
<path d="M67.8914 18.2581V6.22461H70.7219V15.9155H75.4339V18.2581H67.8914Z" fill="black"/>
<path d="M77.1029 18.2581V6.22461H79.9335V15.9155H84.6454V18.2581H77.1029Z" fill="black"/>
<path d="M93.2576 18.2581H86.3145V6.22461H93.2576V8.55041H89.145V10.8594H92.9579V13.1852H89.145V15.8986H93.2576V18.2581Z" fill="black"/>
<path d="M99.8458 11.365H104.758V17.7188C104.136 17.9323 103.459 18.1064 102.726 18.2413C102.005 18.3649 101.217 18.4267 100.362 18.4267C99.1965 18.4267 98.1919 18.1963 97.3483 17.7357C96.5047 17.275 95.8554 16.584 95.4003 15.6627C94.9563 14.7413 94.7343 13.5953 94.7343 12.2245C94.7343 10.9661 94.9729 9.87623 95.4502 8.9549C95.9275 8.03357 96.6268 7.3201 97.5481 6.81449C98.4805 6.30888 99.6183 6.05608 100.961 6.05608C101.639 6.05608 102.293 6.12349 102.926 6.25832C103.57 6.39315 104.136 6.57292 104.624 6.79764L103.709 9.07288C103.32 8.87063 102.893 8.71333 102.427 8.60098C101.96 8.48862 101.472 8.43244 100.961 8.43244C100.24 8.43244 99.6294 8.60098 99.1299 8.93805C98.6415 9.26389 98.2752 9.71893 98.031 10.3032C97.7868 10.8762 97.6647 11.5335 97.6647 12.2751C97.6647 13.0503 97.7701 13.7189 97.981 14.2807C98.1919 14.8424 98.5083 15.2806 98.9301 15.5952C99.363 15.8986 99.9124 16.0503 100.578 16.0503C100.767 16.0503 100.95 16.0447 101.128 16.0334C101.306 16.011 101.472 15.9885 101.627 15.966C101.783 15.9435 101.922 15.9211 102.044 15.8986V13.6739H99.8458V11.365Z" fill="black"/>
<path d="M114.006 18.2581H107.063V6.22461H114.006V8.55041H109.893V10.8594H113.706V13.1852H109.893V15.8986H114.006V18.2581Z" fill="black"/>
<path d="M62.4161 40.7296H57.8755V32.6188H51.0379V40.7296H46.4705V21.4259H51.0379V28.8067H57.8755V21.4259H62.4161V40.7296Z" fill="black"/>
<path d="M77.4977 40.7296L76.3224 36.5931H69.7252L68.55 40.7296H63.582L70.0724 21.3448H75.8951L82.4656 40.7296H77.4977ZM74.1857 28.8878C74.0966 28.5634 73.972 28.1308 73.8117 27.5901C73.6693 27.0314 73.5179 26.4636 73.3577 25.8868C73.2152 25.3101 73.0995 24.8234 73.0105 24.4269C72.9392 24.8234 72.8235 25.3191 72.6632 25.9139C72.5208 26.4907 72.3783 27.0584 72.2359 27.6172C72.0934 28.1579 71.9777 28.5814 71.8887 28.8878L70.7668 32.754H75.3075L74.1857 28.8878Z" fill="black"/>
<path d="M91.4 24.9676C90.7056 24.9676 90.0823 25.1118 89.5303 25.4002C88.9961 25.6706 88.5421 26.0761 88.1681 26.6168C87.7942 27.1575 87.5093 27.8064 87.3134 28.5634C87.1176 29.3204 87.0196 30.1766 87.0196 31.1318C87.0196 32.4296 87.1799 33.529 87.5004 34.4302C87.8209 35.3314 88.3106 36.0164 88.9694 36.485C89.6461 36.9536 90.5008 37.1879 91.5335 37.1879C92.3348 37.1879 93.1272 37.0888 93.9107 36.8905C94.6942 36.6742 95.5222 36.4039 96.3947 36.0794V39.9726C95.5578 40.3331 94.712 40.5945 93.8573 40.7567C93.0026 40.9189 92.0766 41 91.0795 41C89.0674 41 87.4114 40.5945 86.1115 39.7834C84.8294 38.9543 83.8768 37.8007 83.2536 36.3228C82.6482 34.8268 82.3455 33.0874 82.3455 31.1048C82.3455 29.6449 82.5413 28.3111 82.9331 27.1035C83.3248 25.8778 83.9035 24.8234 84.6692 23.9402C85.4527 23.0571 86.4053 22.3722 87.5271 21.8855C88.6489 21.3989 89.9488 21.1555 91.4267 21.1555C92.3526 21.1555 93.3053 21.2727 94.2846 21.507C95.2818 21.7413 96.2344 22.0748 97.1426 22.5073L95.727 26.1842C95.0147 25.8418 94.3024 25.5534 93.5902 25.3191C92.8779 25.0848 92.1479 24.9676 91.4 24.9676Z" fill="black"/>
<path d="M115 40.7296H109.818L105.411 32.9433L103.782 34.0247V40.7296H99.2146V21.4259H103.782V30.0504C104.013 29.6539 104.263 29.2573 104.53 28.8608C104.815 28.4643 105.091 28.0768 105.358 27.6983L110.005 21.4259H115L108.643 30.0234L115 40.7296Z" fill="black"/>
</svg>
